# xmcd
#
# Track frame offsets:
#	150
#	10445
#	20101
#	31787
#	42544
#	54145
#	64314
#	77691
#	86066
#	96204
#	106810
#	119185
#	130532
#	141085
#	150942
#	160210
#	170079
#	183160
#	195418
#	205203
#	215010
#	223581
#	237183
#	249080
#	259294
#	272449
#	283831
#	295521
#	308470
#	320359
#	335534
#	347384
#
# Disc length: 4788 seconds
#
# Revision: 0
# Processed by: cddbd v1.5.1PL2 Copyright (c) Steve Scherf et al.
# Submitted via: EasyCDDAExtractor 4.6.9.1
#
DISCID=c512b220
DTITLE=Connie Smith - Born to Sing - Disc 3
DYEAR=2001
DGENRE=Country
TTITLE0=I Will
TTITLE1=Gone
TTITLE2=My Little Corner Of The World
TTITLE3=Pas Souvent
TTITLE4=J'imaginals Autrement L'amour
TTITLE5=Le Jour Et La Nuit
TTITLE6=L'Amour N'excuse Pas
TTITLE7=Love's Gonna Live Here
TTITLE8=Foolin' Around
TTITLE9=You Ain't Woman Enough
TTITLE10=I Overlooked An Orchid
TTITLE11=I'm Little But I'm Loud
TTITLE12=Y'all Come
TTITLE13=A-Sleeping At The Foot Of The Bed
TTITLE14=Slowly
TTITLE15=World Of Forgotten People
TTITLE16=The Hurtin's All Over
TTITLE17=It'll Be Easy
TTITLE18=I'll Come Running
TTITLE19=I'll Come Running (alt ver)
TTITLE20=Ride, Ride, Ride
TTITLE21=My Own Peculiar Way
TTITLE22=Walk Out Backwards
TTITLE23=Your Mem'ry Comes Along
TTITLE24=Downtown
TTITLE25=Born A Woman
TTITLE26=The Night Has A Thousand Eyes
TTITLE27=That's What It's Like To Be Lonesome
TTITLE28=It's Gonna Rain Today
TTITLE29=It's Now or Never
TTITLE30=My Heart Has A Mind Of Its Own
TTITLE31=City Lights
EXTD=
EXTT0=
EXTT1=
EXTT2=
EXTT3=
EXTT4=
EXTT5=
EXTT6=
EXTT7=
EXTT8=
EXTT9=
EXTT10=
EXTT11=
EXTT12=
EXTT13=
EXTT14=
EXTT15=
EXTT16=
EXTT17=
EXTT18=
EXTT19=
EXTT20=
EXTT21=
EXTT22=
EXTT23=
EXTT24=
EXTT25=
EXTT26=
EXTT27=
EXTT28=
EXTT29=
EXTT30=
EXTT31=
PLAYORDER=
